<svg width="48" height="32" viewBox="0 0 48 32" fill="none" xmlns="http://www.w3.org/2000/svg">
<path d="M21.3642 21.8188H18.1283L20.1523 10.2183H23.388L21.3642 21.8188Z" fill="#1434CB"/>
<path d="M33.0945 10.5019C32.4563 10.2672 31.4439 10.0081 30.1922 10.0081C26.9967 10.0081 24.7464 11.5876 24.7326 13.8459C24.706 15.5121 26.3437 16.4375 27.5686 16.9931C28.8205 17.5608 29.246 17.9313 29.246 18.4373C29.2333 19.2145 28.2344 19.5727 27.3028 19.5727C26.0109 19.5727 25.3186 19.388 24.2667 18.9557L23.8406 18.7703L23.3878 21.3744C24.1467 21.6949 25.545 21.9793 26.9967 21.9918C30.392 21.9918 32.6024 20.4367 32.6286 18.0301C32.6415 16.7095 31.7768 15.6976 29.9124 14.8708C28.7807 14.34 28.0876 13.9821 28.0876 13.439C28.1008 12.9453 28.6738 12.4396 29.9514 12.4396C31.0033 12.4148 31.7763 12.6492 32.3618 12.8838L32.6545 13.0069L33.0945 10.5019Z" fill="#1434CB"/>
<path d="M37.3952 17.7092C37.6617 17.0427 38.6871 14.4634 38.6871 14.4634C38.6737 14.4882 38.9531 13.7847 39.1129 13.3528L39.339 14.3524C39.339 14.3524 39.9518 17.1292 40.0849 17.7092C39.5791 17.7092 38.0344 17.7092 37.3952 17.7092ZM41.3895 10.2183H38.8865C38.1147 10.2183 37.5283 10.4279 37.1953 11.1808L32.3888 21.8187H35.7841C35.7841 21.8187 36.3431 20.3869 36.4632 20.0785C36.8357 20.0785 40.1386 20.0785 40.6178 20.0785C40.7107 20.4858 41.0039 21.8187 41.0039 21.8187H44.0001L41.3895 10.2183Z" fill="#1434CB"/>
<path d="M15.4249 10.2183L12.2559 18.1287L11.9097 16.5244C11.3238 14.6732 9.48632 12.6619 7.43582 11.6619L10.3385 21.8065H13.7604L18.8466 10.2183H15.4249Z" fill="#1434CB"/>
<path d="M9.31369 10.2183H4.10746L4.0542 10.4527C8.11538 11.4153 10.805 13.7358 11.9101 16.5249L10.7783 11.1934C10.592 10.4525 10.0194 10.2427 9.31369 10.2183Z" fill="#1434CB"/>
</svg>
